<svg version="1.0" xmlns="http://www.w3.org/2000/svg"
 width="20px" height="20px" viewBox="0 0 209.000000 241.000000"
 preserveAspectRatio="xMidYMid meet">

<g transform="translate(0.000000,241.000000) scale(0.100000,-0.100000)"
fill="#000000" stroke="none">
<path d="M748 2394 c-33 -10 -58 -28 -87 -60 -23 -26 -41 -53 -41 -60 0 -10
-13 -14 -40 -14 -33 0 -42 -4 -54 -28 -47 -92 -13 -222 59 -222 19 0 26 -6 31
-27 13 -65 38 -105 76 -124 33 -17 38 -24 38 -53 0 -19 -15 -85 -34 -147 -18
-63 -43 -148 -55 -189 -12 -41 -50 -175 -86 -298 -78 -269 -95 -347 -84 -386
17 -58 59 -105 173 -191 64 -48 119 -91 121 -96 3 -5 -20 -58 -51 -118 -31
-60 -54 -116 -51 -124 7 -19 200 -118 308 -158 106 -39 201 -47 286 -25 84 22
153 53 153 68 0 7 -21 33 -46 59 l-45 46 44 17 c199 76 311 302 251 507 -33
114 -107 212 -223 299 l-70 51 15 34 c8 19 14 52 14 73 0 37 -4 42 -80 101
-110 85 -213 191 -252 259 -27 47 -33 68 -33 117 0 41 6 68 18 86 16 25 19 25
71 16 29 -5 66 -7 81 -3 26 7 27 10 21 46 -3 21 -2 41 3 45 5 3 8 25 6 49 -3
31 0 48 10 56 22 18 19 28 -20 71 -27 30 -35 48 -35 77 0 46 -28 107 -69 154
-17 20 -31 42 -31 51 0 16 -33 32 -100 47 -62 13 -136 11 -192 -6z m10 -1339
c40 -82 62 -191 62 -301 0 -57 -4 -105 -8 -108 -15 -9 -172 180 -172 208 0 20
39 140 75 229 11 26 19 21 43 -28z m649 -167 c90 -42 152 -154 138 -250 -14
-96 -91 -185 -180 -209 -164 -45 -331 96 -312 261 21 174 197 272 354 198z"/>
<path d="M1350 818 c-14 -5 -34 -18 -46 -29 -19 -18 -22 -18 -53 -3 -28 14
-40 15 -72 5 -52 -16 -73 -49 -66 -103 5 -35 16 -51 71 -103 50 -46 66 -67 66
-88 l0 -27 43 21 c109 55 197 150 197 213 0 74 -78 137 -140 114z"/>
<path d="M1378 1664 c-32 -7 -75 -22 -95 -33 -48 -25 -128 -106 -118 -120 4
-8 23 5 53 35 66 67 119 89 217 89 52 0 99 -7 133 -19 74 -25 190 -105 253
-174 61 -67 122 -188 140 -280 16 -87 7 -248 -21 -337 -62 -199 -228 -426
-439 -598 -23 -19 -31 -31 -24 -38 22 -22 252 195 364 344 334 442 331 837 -9
1034 -162 94 -322 129 -454 97z"/>
<path d="M363 1516 c-181 -46 -323 -202 -355 -392 -10 -60 -9 -85 5 -155 37
-190 158 -344 447 -570 25 -19 67 -53 94 -74 95 -77 40 -7 -74 92 -63 56 -129
116 -147 135 -65 71 -143 191 -175 271 -31 78 -32 88 -33 217 l0 136 37 74
c77 154 204 240 355 240 35 0 63 4 63 9 0 23 -149 34 -217 17z"/>
</g>
</svg>